<?xml version="1.0" encoding="UTF-8" standalone="no"?>
<svg xmlns:dc="http://purl.org/dc/elements/1.1/" xmlns:cc="http://creativecommons.org/ns#" xmlns:rdf="http://www.w3.org/1999/02/22-rdf-syntax-ns#" xmlns:svg="http://www.w3.org/2000/svg" xmlns="http://www.w3.org/2000/svg" viewBox="294.1897 0 466.6665 466.6665" height="466.6665" width="466.6665" xml:space="preserve" id="svg2" version="1.1">
  <metadata id="metadata8">
    <rdf:RDF>
      <cc:Work rdf:about="">
        <dc:format>
          image/svg+xml
        </dc:format>
        <dc:type rdf:resource="http://purl.org/dc/dcmitype/StillImage"/>
      </cc:Work>
    </rdf:RDF>
  </metadata>
  <defs id="defs6">
    <clipPath id="clipPath50" clipPathUnits="userSpaceOnUse">
      <path id="path48" d="M 0,557.879 H 791.284 V 0 H 0 Z"/>
    </clipPath>
  </defs>
  <g transform="matrix(1.3333333,0,0,-1.3333333,0,743.83867)" id="g10">
    <g transform="translate(292.1823,557.8794)" id="g12">
      <path id="path14" style="fill:#ffc000;fill-opacity:1;fill-rule:nonzero;stroke:none" d="M 0,0 -71.54,-71.539 31.939,-175 -71.54,-278.461 0,-350 175,-175 Z"/>
    </g>
    <g transform="translate(220.6427,486.3399)" id="g16">
      <path id="path18" style="fill:#96d94e;fill-opacity:1;fill-rule:nonzero;stroke:none" d="M 0,0 246.539,-103.461 H 103.479 Z"/>
    </g>
    <g transform="translate(292.1823,557.8794)" id="g20">
      <path id="path22" style="fill:#00a332;fill-opacity:1;fill-rule:nonzero;stroke:none" d="M 0,0 -71.54,-71.539 175,-175 Z"/>
    </g>
    <g transform="translate(324.1212,382.8785)" id="g24">
      <path id="path26" style="fill:#ff7337;fill-opacity:1;fill-rule:nonzero;stroke:none" d="m 0,0 -31.939,-175 175,175 z"/>
    </g>
    <g transform="translate(499.104,557.8794)" id="g28">
      <path id="path30" style="fill:#ff7ea9;fill-opacity:1;fill-rule:nonzero;stroke:none" d="m 0,0 -87.243,-87.243 71.539,-71.54 87.242,87.244 z"/>
    </g>
    <g transform="translate(499.104,557.8794)" id="g32">
      <path id="path34" style="fill:#ef2500;fill-opacity:1;fill-rule:nonzero;stroke:none" d="m 0,0 -15.704,-158.783 87.242,87.244 z"/>
    </g>
    <g transform="translate(570.6422,279.4181)" id="g36">
      <path id="path38" style="fill:#00c1ff;fill-opacity:1;fill-rule:nonzero;stroke:none" d="m 0,0 -87.243,87.243 -71.54,-71.539 87.244,-87.243 z"/>
    </g>
    <g transform="translate(499.1031,207.879)" id="g40">
      <path id="path42" style="fill:#0058ff;fill-opacity:1;fill-rule:nonzero;stroke:none" d="M 0,0 -87.244,87.243 71.539,71.539 Z"/>
    </g>
    <g id="g44"/>
  </g>
</svg>
