<svg xmlns="http://www.w3.org/2000/svg" width="64" height="64" viewBox="0 0 64 64" fill="#05baf3" aria-hidden="true">
  <path d="M32 57.6v1.561c0 2.209-1.791 4-4 4a4 4 0 0 1-1.961-.514l-24-13.5A4 4 0 0 1 0 45.661V18.339a4 4 0 0 1 2.039-3.486l24-13.5A4 4 0 0 1 32 4.839V6.4l2.851-.855A4 4 0 0 1 40 9.376V11l3.504-.438A4 4 0 0 1 48 14.531v34.938a4 4 0 0 1-4.496 3.969L40 53v1.624a4 4 0 0 1-5.149 3.831L32 57.6Zm0-4.176 4 1.2V9.376l-4 1.2v42.848Zm8-38.393v33.938l4 .5V14.531l-4 .5ZM4 18.339v27.322l24 13.5V4.839l-24 13.5ZM8 21l4-2v26l-4-2V21Z"/>
</svg>
